<?xml version='1.0' encoding='utf-8'?>
<!DOCTYPE svg>
<!-- Generator: Adobe Illustrator 16.0.0, SVG Export Plug-In . SVG Version: 6.00 Build 0)  -->
<svg xmlns="http://www.w3.org/2000/svg" y="0px" version="1.1" enable-background="new 0 0 22.417 29.779" width="0.311347in" xml:space="preserve" height="0.413597in" id="Layer_1"  viewBox="0 0 22.417 29.779" xmlns:xml="http://www.w3.org/XML/1998/namespace" x="0px" gorn="0">
    <desc>
        <referenceFile>sparkfun-connectors_usb_schematic.svg</referenceFile>
    </desc>
    <g id="schematic"  gorn="0.0">
        <rect y="0.514" stroke="#000000" fill="#FFFFFF" stroke-width="0.9" width="14.401" height="28.801"  stroke-linecap="round" x="7.55" stroke-linejoin="round"/>
        <g transform="translate(6.47347,20)" >
            <g >
                <g transform="rotate(270)" >
                    <g >
                        <g transform="matrix(0 1 -1 0 3.5559 4.2516)" >
                            <text font-family="'DroidSans'" font-size="4.252" >USB</text>
                        </g>
                    </g>
                </g>
            </g>
        </g>
        <line stroke="#787878" fill="none" stroke-width="0.75" id="connector3pin"  stroke-linecap="round" y1="4.115" y2="4.115" x1="0.35" x2="7.55" gorn="0.0.2"/>
        <polygon points="0,4.468 0.49,4.468 0.49,3.733 0,3.733 " fill="none" id="connector3terminal"  gorn="0.0.3"/>
        <g transform="matrix(1 0 0 1 3.2622 3.0652)" >
            <text font-family="'DroidSans'" font-size="2.5" fill="#8C8C8C" >4</text>
        </g>
        <line stroke="#787878" fill="none" stroke-width="0.75" id="connector2pin"  stroke-linecap="round" y1="11.315" y2="11.315" x1="0.35" x2="7.55" gorn="0.0.5"/>
        <polygon points="0.583,11.681 0.583,10.952 0,10.952 0,11.681 " fill="none" id="connector2terminal"  gorn="0.0.6"/>
        <g transform="matrix(1 0 0 1 3.2622 10.2644)" >
            <text font-family="'DroidSans'" font-size="2.5" fill="#8C8C8C" >3</text>
        </g>
        <line stroke="#787878" fill="none" stroke-width="0.75" id="connector4pin"  stroke-linecap="round" y1="18.514" y2="18.514" x1="0.35" x2="7.55" gorn="0.0.8"/>
        <rect y="18.16" fill="none" width="0.521" height="0.729" id="connector4terminal"  gorn="0.0.9"/>
        <g transform="matrix(1 0 0 1 3.2622 17.4656)" >
            <text font-family="'DroidSans'" font-size="2.5" fill="#8C8C8C" >5</text>
        </g>
        <line stroke="#787878" fill="none" stroke-width="0.75" id="connector5pin"  stroke-linecap="round" y1="25.714" y2="25.714" x1="0.35" x2="7.55" gorn="0.0.11"/>
        <rect y="25.348" fill="none" width="0.521" height="0.75" id="connector5terminal"  gorn="0.0.12"/>
        <g transform="matrix(1 0 0 1 3.2622 24.6648)" >
            <text font-family="'DroidSans'" font-size="2.5" fill="#8C8C8C" >6</text>
        </g>
    </g>
</svg>
